<?xml version="1.0" encoding="utf-8"?>
<!-- Generator: Adobe Illustrator 25.4.1, SVG Export Plug-In . SVG Version: 6.00 Build 0)  -->
<svg version="1.1" id="Layer_1" xmlns="http://www.w3.org/2000/svg" xmlns:xlink="http://www.w3.org/1999/xlink" x="0px" y="0px"
	 viewBox="0 0 77.3 77.3" style="enable-background:new 0 0 77.3 77.3;" xml:space="preserve">
<style type="text/css">
	.st0{fill:#FFFFFF;}
	.st1{fill:#C4AAAA;}
</style>
<g>
	<g id="Layer_2_00000158017979848844252000000016849398164548400798_">
		<g id="Layer_1-2">
			<g id="Group_11">
				<g id="Ellipse_5-2">
					
						<image style="overflow:visible;opacity:0.3;enable-background:new    ;" width="322" height="322" xlink:href="DA56A138ABF46FB6.png"  transform="matrix(0.24 0 0 0.24 0 0)">
					</image>
					<circle class="st0" cx="38.5" cy="38.5" r="29.5"/>
				</g>
				<g id="instagram-icon">
					<path id="Path_95" class="st1" d="M38.7,26.1c4,0,4.5,0,6.1,0.1c1,0,1.9,0.2,2.8,0.5c0.7,0.2,1.2,0.6,1.7,1.1
						c0.5,0.5,0.9,1.1,1.1,1.7c0.3,0.9,0.5,1.8,0.5,2.8c0.1,1.6,0.1,2.1,0.1,6.1s0,4.5-0.1,6.1c0,1-0.2,1.9-0.5,2.8
						c-0.5,1.3-1.5,2.4-2.9,2.9c-0.9,0.3-1.8,0.5-2.8,0.5c-1.6,0.1-2.1,0.1-6.1,0.1s-4.5,0-6.1-0.1c-1,0-1.9-0.2-2.8-0.5
						c-0.7-0.3-1.2-0.7-1.7-1.2c-0.5-0.5-0.9-1.1-1.1-1.7c-0.3-0.9-0.5-1.8-0.5-2.8c-0.1-1.6-0.1-2.1-0.1-6.1s0-4.5,0.1-6.1
						c0-1,0.2-1.9,0.5-2.8c0.2-0.7,0.6-1.2,1.1-1.7c0.5-0.5,1.1-0.9,1.7-1.1c0.9-0.3,1.8-0.5,2.8-0.5C34.2,26,34.6,26,38.7,26.1
						 M38.7,23.3c-4.1,0-4.6,0-6.2,0.1c-1.3,0-2.5,0.3-3.7,0.7c-1,0.4-1.9,1-2.7,1.7c-0.8,0.8-1.4,1.7-1.7,2.7
						c-0.4,1.2-0.7,2.4-0.7,3.7c-0.1,1.6-0.1,2.1-0.1,6.2s0,4.6,0.1,6.2c0,1.3,0.3,2.5,0.7,3.7c0.8,2,2.4,3.6,4.4,4.4
						c1.2,0.4,2.4,0.7,3.7,0.7c1.6,0.1,2.1,0.1,6.2,0.1s4.6,0,6.2-0.1c1.2,0,2.5-0.3,3.7-0.7c2-0.8,3.7-2.3,4.5-4.4
						c0.4-1.2,0.7-2.4,0.7-3.7c0.1-1.6,0.1-2.1,0.1-6.2s0-4.6-0.1-6.2c0-1.3-0.3-2.5-0.7-3.7c-0.4-1-1-1.9-1.7-2.7
						c-0.8-0.8-1.7-1.4-2.7-1.7c-1.2-0.4-2.4-0.7-3.7-0.7C43.3,23.4,42.8,23.3,38.7,23.3L38.7,23.3z M38.7,30.7
						c-4.3,0-7.7,3.5-7.7,7.7c0,4.3,3.5,7.7,7.7,7.7s7.7-3.5,7.7-7.7c0,0,0,0,0,0C46.4,34.1,42.9,30.6,38.7,30.7z M38.7,43.4
						c-2.8,0-5-2.2-5-5s2.2-5,5-5s5,2.2,5,5C43.7,41.2,41.5,43.4,38.7,43.4C38.7,43.4,38.7,43.5,38.7,43.4L38.7,43.4z M48.5,30.3
						c0,1-0.8,1.8-1.8,1.8c-1,0-1.8-0.8-1.8-1.8c0-1,0.8-1.8,1.8-1.8c0,0,0,0,0,0C47.7,28.5,48.5,29.3,48.5,30.3z"/>
				</g>
			</g>
		</g>
	</g>
</g>
</svg>
