<?xml version="1.0" encoding="utf-8"?>
<!-- Generator: Adobe Illustrator 25.4.1, SVG Export Plug-In . SVG Version: 6.00 Build 0)  -->
<svg version="1.1" id="Layer_1" xmlns="http://www.w3.org/2000/svg" xmlns:xlink="http://www.w3.org/1999/xlink" x="0px" y="0px"
	 viewBox="0 0 77.3 77.3" style="enable-background:new 0 0 77.3 77.3;" xml:space="preserve">
<style type="text/css">
	.st0{fill:#FFFFFF;}
	.st1{fill:#C4AAAA;}
</style>
<g>
	<g id="Layer_2_00000057864667144086842410000009082705698816248488_">
		<g id="Layer_1-2">
			<g id="Group_13">
				<g id="Ellipse_6-5">
					
						<image style="overflow:visible;opacity:0.3;enable-background:new    ;" width="322" height="322" xlink:href="2FB2129FD5C0438.png"  transform="matrix(0.24 0 0 0.24 0 0)">
					</image>
					<circle class="st0" cx="38.5" cy="38.7" r="29.5"/>
				</g>
				<g id="linkedin-icon">
					<path id="Path_96" class="st1" d="M47.9,48.1H44v-6.2c0-1.5,0-3.4-2-3.4s-2.4,1.6-2.4,3.3v6.3h-4V35.4h3.8v1.7h0
						c0.8-1.3,2.2-2.1,3.7-2c4,0,4.7,2.6,4.7,6V48.1z M31.2,33.7c-1.3,0-2.3-1-2.3-2.3c0-1.3,1-2.3,2.3-2.3s2.3,1,2.3,2.3
						c0,0.6-0.2,1.2-0.7,1.6C32.4,33.4,31.8,33.7,31.2,33.7 M33.2,48.1h-4V35.4h4L33.2,48.1z M49.9,25.4H27.2c-1.1,0-2,0.8-2,1.9
						c0,0,0,0,0,0v22.8c0,1.1,0.9,1.9,1.9,1.9c0,0,0,0,0.1,0h22.7c1.1,0,2-0.8,2-1.9c0,0,0,0,0-0.1V27.3
						C51.9,26.3,51,25.4,49.9,25.4C49.9,25.4,49.9,25.4,49.9,25.4"/>
				</g>
			</g>
		</g>
	</g>
</g>
</svg>
