<?xml version="1.0" encoding="utf-8"?>
<!-- Generator: Adobe Illustrator 25.4.1, SVG Export Plug-In . SVG Version: 6.00 Build 0)  -->
<svg version="1.1" id="Layer_1" xmlns="http://www.w3.org/2000/svg" xmlns:xlink="http://www.w3.org/1999/xlink" x="0px" y="0px"
	 viewBox="0 0 77.3 77.3" style="enable-background:new 0 0 77.3 77.3;" xml:space="preserve">
<style type="text/css">
	.st0{fill:#FFFFFF;}
	.st1{fill:#C4AAAA;}
</style>
<g>
	<g id="Layer_2_00000114775456516019972170000000049424644346100380_">
		<g id="Layer_1-2">
			<g id="Group_14">
				
					<image style="overflow:visible;opacity:0.3;enable-background:new    ;" width="322" height="322" xlink:href="25777515A031B3DA.png"  transform="matrix(0.24 0 0 0.24 0 0)">
				</image>
				<circle id="Ellipse_6-6" class="st0" cx="38.6" cy="38.7" r="29.5"/>
				<g id="twitter">
					<path id="Path_97" class="st1" d="M55,28.6c-1.2,0.5-2.5,0.9-3.9,1.1c1.4-0.8,2.5-2.2,3-3.7c-1.3,0.8-2.8,1.3-4.3,1.6
						c-2.6-2.7-6.8-2.8-9.5-0.3c-1.7,1.6-2.5,4.1-1.9,6.4c-5.4-0.3-10.4-2.8-13.8-7c-1.8,3.1-0.9,7,2.1,9c-1.1,0-2.1-0.3-3-0.8v0.1
						c0,3.2,2.3,6,5.4,6.6c-1,0.3-2,0.3-3,0.1c0.9,2.7,3.4,4.6,6.3,4.7c-2.4,1.9-5.3,2.9-8.3,2.9c-0.5,0-1.1,0-1.6-0.1
						c3.1,2,6.7,3,10.3,3c12.4,0,19.1-10.2,19.1-19.1v-0.9C53,31.1,54.1,29.9,55,28.6"/>
				</g>
			</g>
		</g>
	</g>
</g>
</svg>
